ffmpeg started on 2025-06-05 at 20:47:33
Report written to "D:\Convert\FFMetrics\reports\ssim_report-6.txt"
Log level: 32
Command line:
ffmpeg -hide_banner -nostdin -i "G:\\\xc0\xed\xe8\xec\xe5\\\xce\xed\xe3\xee\xe8\xed\xe3\xe8\\!_36_\xce\xf1\xe5\xed\xfc_2024\\DreamCast\\\xcd\xe5\xe7\xed\xe0\xea\xee\xec\xf6\xfb \xe2 \xe4\xf0\xf3\xe3\xee\xe9 \xe6\xe8\xe7\xed\xe8\\[DC] Raise wa Tanin ga Ii - 05_Telegram_HEVC.mkv" -i "G:\\\xc0\xed\xe8\xec\xe5\\\xce\xed\xe3\xee\xe8\xed\xe3\xe8\\!_36_\xce\xf1\xe5\xed\xfc_2024\\DreamCast\\\xcd\xe5\xe7\xed\xe0\xea\xee\xec\xf6\xfb \xe2 \xe4\xf0\xf3\xe3\xee\xe9 \xe6\xe8\xe7\xed\xe8\\[DC] Raise wa Tanin ga Ii - 05_Telegram.mp4" -lavfi "[0:v]settb=AVTB,setpts=PTS-STARTPTS,format=pix_fmts=yuv420p10,fps=24000/1001,scale=1920:1080:flags=bicubic[main];[1:v]settb=AVTB,setpts=PTS-STARTPTS,format=pix_fmts=yuv420p,fps=24000/1001,scale=1920:1080:flags=bicubic[ref];[main][ref]ssim=eof_action=endall:stats_file='D\\:/Convert/FFMetrics/logs/ssim_logfile-6.txt'" -f null -
Input #0, matroska,webm, from 'G:\Аниме\Онгоинги\!_36_Осень_2024\DreamCast\Незнакомцы в другой жизни\[DC] Raise wa Tanin ga Ii - 05_Telegram_HEVC.mkv':
  Metadata:
    COMPATIBLE_BRANDS: isomiso2avc1mp41
    MAJOR_BRAND     : isom
    MINOR_VERSION   : 512
    ENCODER         : Lavf61.7.100
  Duration: 00:23:46.77, start: -0.021000, bitrate: 934 kb/s
  Stream #0:0: Video: hevc (Main 10), yuv420p10le(tv, bt709, progressive), 1920x1080 [SAR 1:1 DAR 16:9], 23.98 fps, 23.98 tbr, 1k tbn (default)
      Metadata:
        HANDLER_NAME    : VideoHandler
        VENDOR_ID       : [0][0][0][0]
        ENCODER         : Lavc61.19.100 libx265
        BPS             : 738393
        DURATION        : 00:23:46.549708333
        NUMBER_OF_FRAMES: 34203
        NUMBER_OF_BYTES : 131669264
        _STATISTICS_WRITING_APP: mkvpropedit v66.0.0 ('Josie') 64-bit
        _STATISTICS_WRITING_DATE_UTC: 2025-05-31 15:26:23
        _STATISTICS_TAGS: BPS DURATION NUMBER_OF_FRAMES NUMBER_OF_BYTES
  Stream #0:1: Audio: aac (LC), 48000 Hz, stereo, fltp (default)
      Metadata:
        HANDLER_NAME    : SoundHandler
        VENDOR_ID       : [0][0][0][0]
        ENCODER         : Lavc61.19.100 aac
        BPS             : 192456
        DURATION        : 00:23:46.773000000
        NUMBER_OF_FRAMES: 66881
        NUMBER_OF_BYTES : 34323918
        _STATISTICS_WRITING_APP: mkvpropedit v66.0.0 ('Josie') 64-bit
        _STATISTICS_WRITING_DATE_UTC: 2025-05-31 15:26:23
        _STATISTICS_TAGS: BPS DURATION NUMBER_OF_FRAMES NUMBER_OF_BYTES
Input #1, mov,mp4,m4a,3gp,3g2,mj2, from 'G:\Аниме\Онгоинги\!_36_Осень_2024\DreamCast\Незнакомцы в другой жизни\[DC] Raise wa Tanin ga Ii - 05_Telegram.mp4':
  Metadata:
    major_brand     : isom
    minor_version   : 512
    compatible_brands: isomiso2avc1mp41
    encoder         : Lavf61.1.100
  Duration: 00:23:46.72, start: 0.000000, bitrate: 3764 kb/s
  Stream #1:0[0x1](und): Video: h264 (High) (avc1 / 0x31637661), yuv420p(tv, bt709, progressive), 1920x1080 [SAR 1:1 DAR 16:9], 3616 kb/s, 23.98 fps, 23.98 tbr, 24k tbn (default)
      Metadata:
        handler_name    : VideoHandler
        vendor_id       : [0][0][0][0]
        encoder         : Lavc61.3.100 h264_qsv
  Stream #1:1[0x2](und): Audio: aac (HE-AACv2) (mp4a / 0x6134706D), 48000 Hz, stereo, fltp, 144 kb/s (default)
      Metadata:
        handler_name    : SoundHandler
        vendor_id       : [0][0][0][0]
Stream mapping:
  Stream #0:0 (hevc) -> settb:default
  Stream #1:0 (h264) -> settb:default
  ssim:default -> Stream #0:0 (wrapped_avframe)
  Stream #0:1 -> #0:1 (aac (native) -> pcm_s16le (native))
Output #0, null, to 'pipe:':
  Metadata:
    COMPATIBLE_BRANDS: isomiso2avc1mp41
    MAJOR_BRAND     : isom
    MINOR_VERSION   : 512
    encoder         : Lavf61.7.100
  Stream #0:0: Video: wrapped_avframe, yuv420p10le(tv, bt709, progressive), 1920x1080 [SAR 1:1 DAR 16:9], q=2-31, 200 kb/s, 23.98 fps, 23.98 tbn
      Metadata:
        encoder         : Lavc61.19.100 wrapped_avframe
  Stream #0:1: Audio: pcm_s16le, 48000 Hz, stereo, s16, 1536 kb/s (default)
      Metadata:
        HANDLER_NAME    : SoundHandler
        VENDOR_ID       : [0][0][0][0]
        _STATISTICS_TAGS: BPS DURATION NUMBER_OF_FRAMES NUMBER_OF_BYTES
        BPS             : 192456
        DURATION        : 00:23:46.773000000
        NUMBER_OF_FRAMES: 66881
        NUMBER_OF_BYTES : 34323918
        _STATISTICS_WRITING_APP: mkvpropedit v66.0.0 ('Josie') 64-bit
        _STATISTICS_WRITING_DATE_UTC: 2025-05-31 15:26:23
        encoder         : Lavc61.19.100 pcm_s16le
frame=  168 fps=0.0 q=-0.0 size=N/A time=00:00:07.00 bitrate=N/A speed=13.7x    frame=  421 fps=413 q=-0.0 size=N/A time=00:00:17.55 bitrate=N/A speed=17.2x    frame=  655 fps=426 q=-0.0 size=N/A time=00:00:27.31 bitrate=N/A speed=17.8x    frame=  909 fps=440 q=-0.0 size=N/A time=00:00:37.91 bitrate=N/A speed=18.4x    frame= 1176 fps=457 q=-0.0 size=N/A time=00:00:49.04 bitrate=N/A speed=19.1x    frame= 1439 fps=466 q=-0.0 size=N/A time=00:01:00.01 bitrate=N/A speed=19.5x    frame= 1715 fps=475 q=-0.0 size=N/A time=00:01:11.52 bitrate=N/A speed=19.8x    frame= 1982 fps=481 q=-0.0 size=N/A time=00:01:22.66 bitrate=N/A speed=20.1x    frame= 2200 fps=475 q=-0.0 size=N/A time=00:01:31.75 bitrate=N/A speed=19.8x    frame= 2449 fps=476 q=-0.0 size=N/A time=00:01:42.14 bitrate=N/A speed=19.8x    frame= 2681 fps=473 q=-0.0 size=N/A time=00:01:51.82 bitrate=N/A speed=19.7x    frame= 2936 fps=475 q=-0.0 size=N/A time=00:02:02.45 bitrate=N/A speed=19.8x    frame= 3201 fps=477 q=-0.0 size=N/A time=00:02:13.50 bitrate=N/A speed=19.9x    frame= 3452 fps=479 q=-0.0 size=N/A time=00:02:23.97 bitrate=N/A speed=  20x    frame= 3721 fps=481 q=-0.0 size=N/A time=00:02:35.19 bitrate=N/A speed=20.1x    frame= 3994 fps=484 q=-0.0 size=N/A time=00:02:46.58 bitrate=N/A speed=20.2x    frame= 4257 fps=486 q=-0.0 size=N/A time=00:02:57.55 bitrate=N/A speed=20.3x    frame= 4470 fps=482 q=-0.0 size=N/A time=00:03:06.43 bitrate=N/A speed=20.1x    frame= 4692 fps=479 q=-0.0 size=N/A time=00:03:15.73 bitrate=N/A speed=  20x    frame= 4922 fps=478 q=-0.0 size=N/A time=00:03:25.28 bitrate=N/A speed=19.9x    frame= 5153 fps=476 q=-0.0 size=N/A time=00:03:34.92 bitrate=N/A speed=19.8x    frame= 5392 fps=476 q=-0.0 size=N/A time=00:03:44.89 bitrate=N/A speed=19.8x    frame= 5621 fps=474 q=-0.0 size=N/A time=00:03:54.44 bitrate=N/A speed=19.8x    frame= 5844 fps=473 q=-0.0 size=N/A time=00:04:03.74 bitrate=N/A speed=19.7x    frame= 6075 fps=471 q=-0.0 size=N/A time=00:04:13.37 bitrate=N/A speed=19.7x    frame= 6306 fps=471 q=-0.0 size=N/A time=00:04:23.01 bitrate=N/A speed=19.6x    frame= 6557 fps=471 q=-0.0 size=N/A time=00:04:33.48 bitrate=N/A speed=19.6x    frame= 6763 fps=469 q=-0.0 size=N/A time=00:04:42.07 bitrate=N/A speed=19.5x    frame= 6994 fps=468 q=-0.0 size=N/A time=00:04:51.70 bitrate=N/A speed=19.5x    frame= 7234 fps=468 q=-0.0 size=N/A time=00:05:01.71 bitrate=N/A speed=19.5x    frame= 7498 fps=469 q=-0.0 size=N/A time=00:05:12.72 bitrate=N/A speed=19.6x    frame= 7759 fps=471 q=-0.0 size=N/A time=00:05:23.61 bitrate=N/A speed=19.6x    frame= 8022 fps=472 q=-0.0 size=N/A time=00:05:34.58 bitrate=N/A speed=19.7x    frame= 8273 fps=472 q=-0.0 size=N/A time=00:05:45.05 bitrate=N/A speed=19.7x    frame= 8491 fps=470 q=-0.0 size=N/A time=00:05:54.14 bitrate=N/A speed=19.6x    frame= 8697 fps=469 q=-0.0 size=N/A time=00:06:02.73 bitrate=N/A speed=19.5x    frame= 8947 fps=469 q=-0.0 size=N/A time=00:06:13.16 bitrate=N/A speed=19.6x    frame= 9210 fps=470 q=-0.0 size=N/A time=00:06:24.13 bitrate=N/A speed=19.6x    frame= 9437 fps=469 q=-0.0 size=N/A time=00:06:33.60 bitrate=N/A speed=19.6x    frame= 9721 fps=471 q=-0.0 size=N/A time=00:06:45.44 bitrate=N/A speed=19.7x    frame= 9952 fps=471 q=-0.0 size=N/A time=00:06:55.08 bitrate=N/A speed=19.6x    frame=10188 fps=471 q=-0.0 size=N/A time=00:07:04.92 bitrate=N/A speed=19.6x    frame=10435 fps=471 q=-0.0 size=N/A time=00:07:15.22 bitrate=N/A speed=19.6x    frame=10679 fps=471 q=-0.0 size=N/A time=00:07:25.40 bitrate=N/A speed=19.6x    frame=10926 fps=471 q=-0.0 size=N/A time=00:07:35.70 bitrate=N/A speed=19.6x    frame=11193 fps=472 q=-0.0 size=N/A time=00:07:46.84 bitrate=N/A speed=19.7x    frame=11428 fps=472 q=-0.0 size=N/A time=00:07:56.64 bitrate=N/A speed=19.7x    frame=11660 fps=471 q=-0.0 size=N/A time=00:08:06.31 bitrate=N/A speed=19.6x    frame=11876 fps=470 q=-0.0 size=N/A time=00:08:15.32 bitrate=N/A speed=19.6x    frame=12126 fps=471 q=-0.0 size=N/A time=00:08:25.75 bitrate=N/A speed=19.6x    frame=12395 fps=471 q=-0.0 size=N/A time=00:08:36.97 bitrate=N/A speed=19.7x    frame=12640 fps=472 q=-0.0 size=N/A time=00:08:47.19 bitrate=N/A speed=19.7x    frame=12880 fps=471 q=-0.0 size=N/A time=00:08:57.20 bitrate=N/A speed=19.7x    frame=13097 fps=471 q=-0.0 size=N/A time=00:09:06.25 bitrate=N/A speed=19.6x    frame=13346 fps=471 q=-0.0 size=N/A time=00:09:16.63 bitrate=N/A speed=19.6x    frame=13577 fps=470 q=-0.0 size=N/A time=00:09:26.27 bitrate=N/A speed=19.6x    frame=13817 fps=470 q=-0.0 size=N/A time=00:09:36.28 bitrate=N/A speed=19.6x    frame=14065 fps=470 q=-0.0 size=N/A time=00:09:46.62 bitrate=N/A speed=19.6x    frame=14285 fps=470 q=-0.0 size=N/A time=00:09:55.80 bitrate=N/A speed=19.6x    frame=14522 fps=469 q=-0.0 size=N/A time=00:10:05.68 bitrate=N/A speed=19.6x    frame=14787 fps=470 q=-0.0 size=N/A time=00:10:16.74 bitrate=N/A speed=19.6x    frame=15040 fps=470 q=-0.0 size=N/A time=00:10:27.29 bitrate=N/A speed=19.6x    frame=15284 fps=471 q=-0.0 size=N/A time=00:10:37.47 bitrate=N/A speed=19.6x    frame=15508 fps=470 q=-0.0 size=N/A time=00:10:46.81 bitrate=N/A speed=19.6x    frame=15728 fps=469 q=-0.0 size=N/A time=00:10:55.98 bitrate=N/A speed=19.6x    frame=15947 fps=469 q=-0.0 size=N/A time=00:11:05.12 bitrate=N/A speed=19.5x    frame=16158 fps=468 q=-0.0 size=N/A time=00:11:13.92 bitrate=N/A speed=19.5x    frame=16366 fps=467 q=-0.0 size=N/A time=00:11:22.59 bitrate=N/A speed=19.5x    frame=16585 fps=466 q=-0.0 size=N/A time=00:11:31.73 bitrate=N/A speed=19.4x    frame=16841 fps=467 q=-0.0 size=N/A time=00:11:42.41 bitrate=N/A speed=19.5x    frame=17100 fps=467 q=-0.0 size=N/A time=00:11:53.21 bitrate=N/A speed=19.5x    frame=17335 fps=467 q=-0.0 size=N/A time=00:12:03.01 bitrate=N/A speed=19.5x    frame=17573 fps=467 q=-0.0 size=N/A time=00:12:12.94 bitrate=N/A speed=19.5x    frame=17836 fps=468 q=-0.0 size=N/A time=00:12:23.90 bitrate=N/A speed=19.5x    frame=18078 fps=467 q=-0.0 size=N/A time=00:12:34.00 bitrate=N/A speed=19.5x    frame=18301 fps=467 q=-0.0 size=N/A time=00:12:43.30 bitrate=N/A speed=19.5x    frame=18552 fps=467 q=-0.0 size=N/A time=00:12:53.77 bitrate=N/A speed=19.5x    frame=18787 fps=467 q=-0.0 size=N/A time=00:13:03.57 bitrate=N/A speed=19.5x    frame=19027 fps=467 q=-0.0 size=N/A time=00:13:13.58 bitrate=N/A speed=19.5x    frame=19285 fps=468 q=-0.0 size=N/A time=00:13:24.34 bitrate=N/A speed=19.5x    frame=19552 fps=468 q=-0.0 size=N/A time=00:13:35.48 bitrate=N/A speed=19.5x    frame=19798 fps=468 q=-0.0 size=N/A time=00:13:45.74 bitrate=N/A speed=19.5x    frame=20039 fps=468 q=-0.0 size=N/A time=00:13:55.79 bitrate=N/A speed=19.5x    frame=20280 fps=468 q=-0.0 size=N/A time=00:14:05.84 bitrate=N/A speed=19.5x    frame=20528 fps=468 q=-0.0 size=N/A time=00:14:16.18 bitrate=N/A speed=19.5x    frame=20762 fps=468 q=-0.0 size=N/A time=00:14:25.94 bitrate=N/A speed=19.5x    frame=21003 fps=468 q=-0.0 size=N/A time=00:14:36.00 bitrate=N/A speed=19.5x    frame=21254 fps=468 q=-0.0 size=N/A time=00:14:46.46 bitrate=N/A speed=19.5x    frame=21512 fps=469 q=-0.0 size=N/A time=00:14:57.22 bitrate=N/A speed=19.5x    frame=21721 fps=468 q=-0.0 size=N/A time=00:15:05.94 bitrate=N/A speed=19.5x    frame=21963 fps=468 q=-0.0 size=N/A time=00:15:16.04 bitrate=N/A speed=19.5x    frame=22214 fps=468 q=-0.0 size=N/A time=00:15:26.50 bitrate=N/A speed=19.5x    frame=22481 fps=469 q=-0.0 size=N/A time=00:15:37.64 bitrate=N/A speed=19.5x    frame=22724 fps=469 q=-0.0 size=N/A time=00:15:47.78 bitrate=N/A speed=19.5x    frame=22962 fps=469 q=-0.0 size=N/A time=00:15:57.70 bitrate=N/A speed=19.5x    frame=23196 fps=469 q=-0.0 size=N/A time=00:16:07.46 bitrate=N/A speed=19.5x    frame=23436 fps=469 q=-0.0 size=N/A time=00:16:17.47 bitrate=N/A speed=19.5x    frame=23691 fps=469 q=-0.0 size=N/A time=00:16:28.11 bitrate=N/A speed=19.5x    frame=23916 fps=468 q=-0.0 size=N/A time=00:16:37.49 bitrate=N/A speed=19.5x    frame=24143 fps=468 q=-0.0 size=N/A time=00:16:46.96 bitrate=N/A speed=19.5x    frame=24300 fps=466 q=-0.0 size=N/A time=00:16:53.51 bitrate=N/A speed=19.5x    frame=24458 fps=465 q=-0.0 size=N/A time=00:17:00.10 bitrate=N/A speed=19.4x    frame=24708 fps=465 q=-0.0 size=N/A time=00:17:10.52 bitrate=N/A speed=19.4x    frame=24915 fps=464 q=-0.0 size=N/A time=00:17:19.16 bitrate=N/A speed=19.4x    frame=25171 fps=465 q=-0.0 size=N/A time=00:17:29.84 bitrate=N/A speed=19.4x    frame=25425 fps=465 q=-0.0 size=N/A time=00:17:40.43 bitrate=N/A speed=19.4x    frame=25692 fps=465 q=-0.0 size=N/A time=00:17:51.57 bitrate=N/A speed=19.4x    frame=25952 fps=466 q=-0.0 size=N/A time=00:18:02.41 bitrate=N/A speed=19.4x    frame=26209 fps=466 q=-0.0 size=N/A time=00:18:13.13 bitrate=N/A speed=19.4x    frame=26461 fps=466 q=-0.0 size=N/A time=00:18:23.64 bitrate=N/A speed=19.4x    frame=26691 fps=466 q=-0.0 size=N/A time=00:18:33.23 bitrate=N/A speed=19.4x    frame=26942 fps=466 q=-0.0 size=N/A time=00:18:43.70 bitrate=N/A speed=19.4x    frame=27182 fps=466 q=-0.0 size=N/A time=00:18:53.71 bitrate=N/A speed=19.4x    frame=27447 fps=467 q=-0.0 size=N/A time=00:19:04.76 bitrate=N/A speed=19.5x    frame=27710 fps=467 q=-0.0 size=N/A time=00:19:15.73 bitrate=N/A speed=19.5x    frame=27962 fps=467 q=-0.0 size=N/A time=00:19:26.24 bitrate=N/A speed=19.5x    frame=28224 fps=467 q=-0.0 size=N/A time=00:19:37.17 bitrate=N/A speed=19.5x    frame=28456 fps=467 q=-0.0 size=N/A time=00:19:46.85 bitrate=N/A speed=19.5x    frame=28715 fps=468 q=-0.0 size=N/A time=00:19:57.65 bitrate=N/A speed=19.5x    frame=28942 fps=467 q=-0.0 size=N/A time=00:20:07.12 bitrate=N/A speed=19.5x    frame=29196 fps=468 q=-0.0 size=N/A time=00:20:17.71 bitrate=N/A speed=19.5x    frame=29410 fps=467 q=-0.0 size=N/A time=00:20:26.64 bitrate=N/A speed=19.5x    frame=29611 fps=467 q=-0.0 size=N/A time=00:20:35.02 bitrate=N/A speed=19.5x    frame=29856 fps=467 q=-0.0 size=N/A time=00:20:45.24 bitrate=N/A speed=19.5x    frame=30119 fps=467 q=-0.0 size=N/A time=00:20:56.21 bitrate=N/A speed=19.5x    frame=30369 fps=467 q=-0.0 size=N/A time=00:21:06.64 bitrate=N/A speed=19.5x    frame=30621 fps=467 q=-0.0 size=N/A time=00:21:17.15 bitrate=N/A speed=19.5x    frame=30881 fps=468 q=-0.0 size=N/A time=00:21:27.99 bitrate=N/A speed=19.5x    frame=31139 fps=468 q=-0.0 size=N/A time=00:21:38.75 bitrate=N/A speed=19.5x    frame=31406 fps=468 q=-0.0 size=N/A time=00:21:49.89 bitrate=N/A speed=19.5x    frame=31624 fps=468 q=-0.0 size=N/A time=00:21:58.98 bitrate=N/A speed=19.5x    frame=31869 fps=468 q=-0.0 size=N/A time=00:22:09.20 bitrate=N/A speed=19.5x    frame=32098 fps=468 q=-0.0 size=N/A time=00:22:18.75 bitrate=N/A speed=19.5x    frame=32349 fps=468 q=-0.0 size=N/A time=00:22:29.22 bitrate=N/A speed=19.5x    frame=32576 fps=468 q=-0.0 size=N/A time=00:22:38.69 bitrate=N/A speed=19.5x    frame=32776 fps=467 q=-0.0 size=N/A time=00:22:47.03 bitrate=N/A speed=19.5x    frame=32992 fps=467 q=-0.0 size=N/A time=00:22:56.04 bitrate=N/A speed=19.5x    frame=33215 fps=466 q=-0.0 size=N/A time=00:23:05.34 bitrate=N/A speed=19.5x    frame=33357 fps=465 q=-0.0 size=N/A time=00:23:11.26 bitrate=N/A speed=19.4x    frame=33552 fps=464 q=-0.0 size=N/A time=00:23:19.39 bitrate=N/A speed=19.4x    frame=33718 fps=464 q=-0.0 size=N/A time=00:23:26.32 bitrate=N/A speed=19.3x    frame=33907 fps=463 q=-0.0 size=N/A time=00:23:34.20 bitrate=N/A speed=19.3x    frame=34152 fps=463 q=-0.0 size=N/A time=00:23:44.42 bitrate=N/A speed=19.3x    [Parsed_ssim_10 @ 000002b80bc15340] SSIM Y:0.995339 (23.315001) U:0.993755 (22.044523) V:0.993691 (22.000520) All:0.994800 (22.840116)
[out#0/null @ 000002b87efdf080] video:14697KiB audio:267524KiB subtitle:0KiB other streams:0KiB global headers:0KiB muxing overhead: unknown
frame=34203 fps=463 q=-0.0 Lsize=N/A time=00:23:46.55 bitrate=N/A speed=19.3x    
